<svg width="510" height="384" viewBox="0 0 510 384" fill="none" xmlns="http://www.w3.org/2000/svg">
<g clip-path="url(#clip0)">
<path d="M0 41C0 18.3563 18.3563 0 41 0H82V193H0V41Z" fill="#FA4D05"/>
<path d="M510 40C510 17.3563 491.644 -1 469 -1H428V192H510V40Z" fill="#FA4D05"/>
<path d="M510 356C510 371.464 497.464 384 482 384H428V219H510V356Z" fill="#FA4D05"/>
<path d="M0 356C0 371.464 12.536 384 28 384H82V219H0V356Z" fill="#FA4D05"/>
<rect x="242" y="158" width="26" height="82" rx="13" fill="#FA4D05"/>
<path fill-rule="evenodd" clip-rule="evenodd" d="M392 -1H118V192H199V150C199 142.82 204.82 137 212 137H295C302.18 137 308 142.82 308 150V192H392V-1Z" fill="#FA4D05"/>
<path fill-rule="evenodd" clip-rule="evenodd" d="M392 384H118V219H199V253.021C199 260.2 204.82 266.021 212 266.021H295C302.18 266.021 308 260.2 308 253.021V219H392V384Z" fill="#FA4D05"/>
</g>
<defs>
<clipPath id="clip0">
<rect width="510" height="384" fill="white"/>
</clipPath>
</defs>
</svg>
